<svg width="862" height="862" viewBox="0 0 862 862" fill="none" xmlns="http://www.w3.org/2000/svg">
<path fill-rule="evenodd" clip-rule="evenodd" d="M473.595 5.16016C642.573 37.2151 772.072 215.793 772.072 431C772.072 646.206 642.573 824.784 473.595 856.839C595.507 773.205 677.912 613.755 677.912 431C677.912 248.244 595.507 88.7943 473.595 5.16016Z" fill="white"/>
<path fill-rule="evenodd" clip-rule="evenodd" d="M649.637 35.7402C774.588 102.097 862.004 254.185 862.004 430.999C862.004 607.812 774.588 759.901 649.637 826.257C749.789 737.543 814.924 593.483 814.924 430.999C814.924 268.515 749.789 124.454 649.637 35.7402Z" fill="white"/>
<path fill-rule="evenodd" clip-rule="evenodd" d="M163.802 774.208C172.787 775.26 181.895 775.8 191.106 775.8C220.244 775.8 248.358 770.404 274.791 760.385C296.996 751.974 318.032 740.311 337.537 725.853L348.999 716.879L360.075 707.262L365.849 701.723C375.345 692.591 384.349 682.733 392.798 672.219C403.683 658.683 413.659 644.055 422.569 628.441L425.316 623.726C427.767 619.062 430.217 614.399 432.668 609.736L437.87 598.696C452.397 567.044 462.926 532.291 468.576 495.458C471.89 474.594 473.587 453.036 473.587 431C473.587 425.044 473.463 419.122 473.22 413.269L472.128 395.767C471.528 390.018 470.93 384.268 470.329 378.519L468.409 365.399C461.751 323.19 448.776 283.713 430.695 248.512L425.316 238.274L417.948 225.631C410.469 213.339 402.334 201.676 393.565 190.763C367.459 157.93 336.042 131.432 301.017 113.313L288.19 107.138C278.251 102.69 268.049 98.9058 257.602 95.9176C236.277 89.533 214.008 86.2 191.106 86.2C186.501 86.2 181.921 86.3351 177.37 86.6023L163.802 87.7918C156.89 88.6049 150.05 89.7198 143.298 91.2254L137.234 92.4753C89.2712 103.799 45.6185 129.961 9.62561 166.892L0 177.227C64.1916 69.8019 168.102 0 285.266 0C480.148 0 638.368 193.125 638.368 431C638.368 668.875 480.148 862 285.266 862C168.102 862 64.1916 792.198 0 684.773C44.0083 734.229 100.905 766.829 163.802 774.208Z" fill="white"/>
</svg>
