<svg width="192" height="100" viewBox="0 0 192 100" fill="none" xmlns="http://www.w3.org/2000/svg">
<path d="M24.4805 61.2629H17.0763L20.1447 46.9548L12.2403 61.2629H7.70436L6.20351 46.458L3.0017 61.2629H0L4.50255 40.2313H13.0074L14.0413 52.0885L20.4449 40.2313H29.0164L24.4805 61.2629Z" fill="black"/>
<path d="M38.4514 46.6567C41.0974 46.6567 43.0207 47.1204 44.2214 48.0478C45.4887 49.0193 46.1224 50.6312 46.1224 52.8834C46.1224 54.2744 45.889 55.533 45.422 56.6591C44.9551 57.7631 44.2992 58.6795 43.4543 59.4081C41.7644 60.8213 39.3186 61.5279 36.1168 61.5279C33.3819 61.5279 31.4252 61.009 30.2468 59.9712C28.9794 58.8892 28.3457 57.2663 28.3457 55.1025C28.3457 53.6672 28.6348 52.3645 29.2129 51.1942C29.8132 50.024 30.6693 49.0524 31.781 48.2796C33.4041 47.1977 35.6276 46.6567 38.4514 46.6567ZM36.1835 59.2757C36.7394 59.2757 37.2174 58.9665 37.6176 58.3483C38.0401 57.73 38.3736 56.9793 38.6182 56.0961C38.8628 55.1908 39.0407 54.2634 39.1518 53.314C39.2852 52.3424 39.3519 51.5034 39.3519 50.7968C39.3519 50.1785 39.2852 49.7148 39.1518 49.4057C39.0407 49.0745 38.785 48.9089 38.3847 48.9089C37.7844 48.9089 37.2619 49.2291 36.8172 49.8694C36.3947 50.5097 36.0501 51.2715 35.7833 52.1547C35.5164 53.0379 35.3163 53.9432 35.1829 54.8706C35.0717 55.798 35.0162 56.5487 35.0162 57.1228C35.0162 58.558 35.4053 59.2757 36.1835 59.2757Z" fill="black"/>
<path d="M52.1991 61.2629H46.796L51.532 39.0059H58.3692L56.2013 49.1408H56.4348C57.1685 48.3017 57.9912 47.7055 58.9028 47.3522C59.8367 46.9769 60.7594 46.7892 61.6711 46.7892C62.4493 46.7892 63.0941 46.9106 63.6055 47.1535C64.1391 47.3743 64.5616 47.6835 64.8729 48.0809C65.1842 48.4783 65.4065 48.9531 65.5399 49.5051C65.6733 50.0571 65.74 50.6422 65.74 51.2605C65.74 51.5696 65.7178 52.0333 65.6733 52.6515C65.6289 53.2698 65.5288 53.9653 65.3732 54.7381C65.2175 55.4889 64.9952 56.2727 64.7061 57.0897C64.4171 57.8846 64.028 58.6132 63.5388 59.2757C63.0719 59.9381 62.4715 60.479 61.7378 60.8986C61.0263 61.3181 60.1702 61.5279 59.1697 61.5279C58.5693 61.5279 57.9801 61.4616 57.402 61.3291C56.8461 61.1966 56.3347 61.02 55.8678 60.7992C55.4231 60.5784 55.0229 60.3245 54.6671 60.0374C54.3336 59.7283 54.089 59.4192 53.9334 59.1101H53.6999L52.1991 61.2629ZM55.9678 58.3152C56.5015 58.3152 56.9462 58.0392 57.3019 57.4871C57.6577 56.9131 57.9468 56.2506 58.1691 55.4999C58.3914 54.7271 58.5471 53.9653 58.636 53.2146C58.7472 52.4418 58.8028 51.8677 58.8028 51.4923C58.8028 51.0507 58.725 50.6864 58.5693 50.3993C58.4359 50.1123 58.1802 49.9688 57.8022 49.9688C57.3575 49.9688 56.9462 50.1344 56.5682 50.4656C56.1902 50.7747 55.9123 51.0397 55.7344 51.2605L54.4336 57.1891C54.5893 57.454 54.7894 57.7079 55.034 57.9508C55.3008 58.1937 55.6121 58.3152 55.9678 58.3152Z" fill="black"/>
<path d="M73.0762 61.2629H66.3057L69.3408 47.021H76.178L73.0762 61.2629ZM77.0451 42.6822C77.0451 43.1901 76.934 43.6317 76.7116 44.0071C76.5115 44.3824 76.2336 44.7026 75.8778 44.9676C75.5443 45.2325 75.1552 45.4313 74.7105 45.5637C74.2658 45.6962 73.81 45.7625 73.343 45.7625C72.4537 45.7625 71.7088 45.5527 71.1084 45.1332C70.5081 44.7136 70.2079 44.0512 70.2079 43.1459C70.2079 42.6602 70.308 42.2296 70.5081 41.8542C70.7082 41.4568 70.975 41.1366 71.3086 40.8937C71.6643 40.6288 72.0645 40.43 72.5092 40.2976C72.9762 40.1651 73.4542 40.0988 73.9434 40.0988C74.8105 40.0988 75.5443 40.3086 76.1446 40.7281C76.745 41.1477 77.0451 41.799 77.0451 42.6822Z" fill="black"/>
<path d="M82.8807 61.2629H76.0769L80.8129 39.0059H87.6501L82.8807 61.2629Z" fill="black"/>
<path d="M93.4523 54.6057C93.3634 55.0914 93.2967 55.5551 93.2522 55.9967C93.23 56.4383 93.2189 56.8358 93.2189 57.1891C93.2189 57.3878 93.23 57.6086 93.2522 57.8515C93.2745 58.0944 93.3189 58.3262 93.3856 58.547C93.4746 58.7457 93.5857 58.9224 93.7192 59.0769C93.8748 59.2094 94.086 59.2757 94.3528 59.2757C94.5529 59.2757 94.7753 59.2094 95.0199 59.0769C95.2867 58.9445 95.5424 58.7568 95.787 58.5139C96.0538 58.271 96.2984 57.9729 96.5207 57.6196C96.7653 57.2663 96.9543 56.8689 97.0877 56.4273H102.557L101.69 59.9712C101.246 60.2582 100.734 60.5011 100.156 60.6998C99.578 60.8986 98.9666 61.0642 98.3218 61.1966C97.6769 61.3071 97.021 61.3843 96.354 61.4285C95.6869 61.4947 95.0532 61.5279 94.4529 61.5279C93.3412 61.5279 92.3072 61.4285 91.3511 61.2298C90.395 61.031 89.5612 60.6888 88.8497 60.203C88.1382 59.7173 87.5712 59.0769 87.1488 58.282C86.7485 57.4651 86.5484 56.4604 86.5484 55.2681C86.5484 54.1861 86.7152 53.1263 87.0487 52.0885C87.4045 51.0507 87.9826 50.1344 88.783 49.3395C89.6057 48.5225 90.6952 47.8711 92.0515 47.3854C93.4301 46.8996 95.1422 46.6567 97.1878 46.6567C99.4113 46.6567 101.079 46.999 102.191 47.6835C103.325 48.3679 103.892 49.4388 103.892 50.8961C103.892 51.4923 103.803 52.1437 103.625 52.8503C103.447 53.5348 103.18 54.1199 102.824 54.6057H93.4523ZM97.8882 50.6643C97.8882 49.9798 97.777 49.5161 97.5547 49.2732C97.3323 49.0304 97.0655 48.9089 96.7542 48.9089C96.3984 48.9089 96.0649 49.0304 95.7536 49.2732C95.4646 49.494 95.1978 49.8032 94.9532 50.2006C94.7086 50.576 94.4863 51.0176 94.2861 51.5254C94.086 52.0112 93.9193 52.5301 93.7859 53.0821H97.588C97.6325 52.8171 97.6769 52.5411 97.7214 52.2541C97.7659 52.0112 97.7992 51.7462 97.8215 51.4592C97.8659 51.1722 97.8882 50.9072 97.8882 50.6643Z" fill="black"/>
<path d="M122.518 42.7485H117.148L113.179 61.2629H105.975L109.944 42.7485H104.641L105.241 40.2313H123.085L122.518 42.7485Z" fill="black"/>
<path d="M121.226 47.021H126.662L127.162 49.5051H127.396C127.907 48.7102 128.563 48.0367 129.364 47.4847C130.164 46.9327 131.22 46.6567 132.532 46.6567C132.621 46.6567 132.754 46.6678 132.932 46.6898C133.132 46.6898 133.344 46.723 133.566 46.7892C133.81 46.8334 134.055 46.9106 134.3 47.021C134.566 47.1094 134.822 47.2418 135.067 47.4185L133.599 54.2413H129.964C129.919 52.8723 129.797 51.9229 129.597 51.393C129.397 50.8409 129.074 50.5649 128.63 50.5649C128.407 50.5649 128.163 50.6201 127.896 50.7305C127.651 50.8189 127.396 51.0286 127.129 51.3598L124.994 61.2629H118.191L121.226 47.021Z" fill="black"/>
<path d="M141.917 54.6057C141.828 55.0914 141.762 55.5551 141.717 55.9967C141.695 56.4383 141.684 56.8358 141.684 57.1891C141.684 57.3878 141.695 57.6086 141.717 57.8515C141.739 58.0944 141.784 58.3262 141.851 58.547C141.939 58.7457 142.051 58.9224 142.184 59.0769C142.34 59.2094 142.551 59.2757 142.818 59.2757C143.018 59.2757 143.24 59.2094 143.485 59.0769C143.752 58.9445 144.007 58.7568 144.252 58.5139C144.519 58.271 144.763 57.9729 144.986 57.6196C145.23 57.2663 145.419 56.8689 145.553 56.4273H151.022L150.155 59.9712C149.711 60.2582 149.199 60.5011 148.621 60.6998C148.043 60.8986 147.431 61.0642 146.787 61.1966C146.142 61.3071 145.486 61.3843 144.819 61.4285C144.152 61.4947 143.518 61.5279 142.918 61.5279C141.806 61.5279 140.772 61.4285 139.816 61.2298C138.86 61.031 138.026 60.6888 137.315 60.203C136.603 59.7173 136.036 59.0769 135.614 58.282C135.213 57.4651 135.013 56.4604 135.013 55.2681C135.013 54.1861 135.18 53.1263 135.514 52.0885C135.869 51.0507 136.447 50.1344 137.248 49.3395C138.071 48.5225 139.16 47.8711 140.516 47.3854C141.895 46.8996 143.607 46.6567 145.653 46.6567C147.876 46.6567 149.544 46.999 150.656 47.6835C151.789 48.3679 152.356 49.4388 152.356 50.8961C152.356 51.4923 152.268 52.1437 152.09 52.8503C151.912 53.5348 151.645 54.1199 151.289 54.6057H141.917ZM146.353 50.6643C146.353 49.9798 146.242 49.5161 146.02 49.2732C145.797 49.0304 145.53 48.9089 145.219 48.9089C144.863 48.9089 144.53 49.0304 144.219 49.2732C143.929 49.494 143.663 49.8032 143.418 50.2006C143.174 50.576 142.951 51.0176 142.751 51.5254C142.551 52.0112 142.384 52.5301 142.251 53.0821H146.053C146.097 52.8171 146.142 52.5411 146.186 52.2541C146.231 52.0112 146.264 51.7462 146.286 51.4592C146.331 51.1722 146.353 50.9072 146.353 50.6643Z" fill="black"/>
<path d="M155.287 48.2465C156.421 47.6945 157.577 47.297 158.756 47.0542C159.957 46.7892 161.291 46.6567 162.758 46.6567C164.181 46.6567 165.36 46.7671 166.294 46.9879C167.227 47.2087 167.972 47.5289 168.528 47.9484C169.084 48.3679 169.473 48.8648 169.695 49.4388C169.918 50.0129 170.029 50.6643 170.029 51.393C170.029 51.8125 169.996 52.2651 169.929 52.7509C169.884 53.2367 169.829 53.6452 169.762 53.9764L168.195 61.2629H162.825L162.225 59.1432H162.024C161.313 59.916 160.479 60.5122 159.523 60.9317C158.589 61.3291 157.655 61.5279 156.721 61.5279C156.188 61.5279 155.665 61.4506 155.154 61.296C154.642 61.1414 154.187 60.9096 153.786 60.6005C153.386 60.2693 153.064 59.8608 152.819 59.375C152.575 58.8672 152.452 58.26 152.452 57.5534C152.452 56.4052 152.764 55.4999 153.386 54.8375C154.031 54.153 154.865 53.6452 155.888 53.314C156.933 52.9607 158.1 52.7399 159.39 52.6515C160.701 52.5632 162.013 52.5191 163.325 52.5191C163.37 52.2983 163.425 51.9891 163.492 51.5917C163.559 51.1722 163.592 50.8078 163.592 50.4987C163.592 50.1013 163.481 49.7369 163.258 49.4057C163.058 49.0524 162.625 48.8758 161.958 48.8758C161.18 48.8758 160.601 49.1076 160.223 49.5713C159.868 50.0129 159.634 50.5539 159.523 51.1942H154.654L155.287 48.2465ZM162.958 54.0757H162.358C161.713 54.0757 161.157 54.164 160.69 54.3407C160.246 54.4953 159.879 54.705 159.59 54.97C159.323 55.2349 159.123 55.533 158.989 55.8642C158.856 56.1954 158.789 56.5266 158.789 56.8579C158.789 57.3878 158.923 57.7852 159.19 58.0502C159.479 58.3152 159.812 58.4476 160.19 58.4476C160.657 58.4476 161.113 58.282 161.558 57.9508C162.024 57.6196 162.314 57.178 162.425 56.626L162.958 54.0757Z" fill="black"/>
<path d="M185.163 39.0059H192L187.231 61.2629H181.828L181.227 59.1432H180.994C180.86 59.3419 180.649 59.5848 180.36 59.8718C180.093 60.1368 179.749 60.4018 179.326 60.6667C178.904 60.9096 178.403 61.1083 177.825 61.2629C177.247 61.4395 176.58 61.5279 175.824 61.5279C175.046 61.5279 174.379 61.4175 173.823 61.1966C173.289 60.9538 172.845 60.6336 172.489 60.2362C172.155 59.8387 171.911 59.364 171.755 58.812C171.6 58.2379 171.522 57.6196 171.522 56.9572C171.522 56.6702 171.544 56.2175 171.588 55.5993C171.633 54.9589 171.733 54.2634 171.889 53.5127C172.066 52.7399 172.311 51.956 172.622 51.1611C172.956 50.3441 173.389 49.6044 173.923 48.942C174.479 48.2796 175.157 47.7387 175.958 47.3191C176.758 46.8775 177.725 46.6567 178.859 46.6567C179.215 46.6567 179.593 46.6898 179.993 46.7561C180.393 46.8223 180.771 46.9438 181.127 47.1204C181.505 47.297 181.839 47.551 182.128 47.8822C182.417 48.2134 182.628 48.6439 182.761 49.1739H182.995L185.163 39.0059ZM181.094 49.9025C180.56 49.9025 180.115 50.2006 179.76 50.7968C179.404 51.3709 179.115 52.0443 178.893 52.8171C178.67 53.59 178.503 54.3628 178.392 55.1356C178.303 55.9084 178.259 56.4825 178.259 56.8579C178.259 57.2995 178.326 57.6748 178.459 57.984C178.592 58.271 178.848 58.4145 179.226 58.4145C179.448 58.4145 179.66 58.3704 179.86 58.282C180.082 58.1716 180.282 58.0502 180.46 57.9177C180.66 57.7631 180.827 57.6086 180.96 57.454C181.094 57.2995 181.205 57.167 181.294 57.0566L182.595 51.0286C182.439 50.7857 182.228 50.5429 181.961 50.3C181.716 50.035 181.427 49.9025 181.094 49.9025Z" fill="black"/>
<path fill-rule="evenodd" clip-rule="evenodd" d="M78.837 87.918C75.749 89.0633 72.4645 89.6803 69.0603 89.6803C67.9842 89.6803 66.9203 89.6185 65.8706 89.4982C66.9203 89.6185 67.9842 89.6803 69.0603 89.6803C72.4645 89.6803 75.749 89.0633 78.837 87.918Z" fill="#E00010" stroke="black" stroke-width="0.00492343" stroke-miterlimit="1.5" stroke-linecap="round" stroke-linejoin="round"/>
<path fill-rule="evenodd" clip-rule="evenodd" d="M88.278 82.2891L87.506 82.9452L86.167 83.9707C86.8873 83.4378 87.5924 82.879 88.278 82.2891Z" fill="#E00010" stroke="black" stroke-width="0.00492343" stroke-miterlimit="1.5" stroke-linecap="round" stroke-linejoin="round"/>
<path fill-rule="evenodd" clip-rule="evenodd" d="M102.018 48.2402C102.046 48.9095 102.061 49.5863 102.061 50.2671C102.061 52.7862 101.862 55.2503 101.475 57.6353C101.862 55.2503 102.061 52.7862 102.061 50.2671C102.061 49.5863 102.046 48.9095 102.018 48.2402Z" fill="#E00010" stroke="black" stroke-width="0.00492343" stroke-miterlimit="1.5" stroke-linecap="round" stroke-linejoin="round"/>
<path fill-rule="evenodd" clip-rule="evenodd" d="M98.8057 33.1865C100.013 36.1896 100.914 39.4033 101.457 42.769C100.92 39.4012 100.017 36.1877 98.8057 33.1865Z" fill="#E00010" stroke="black" stroke-width="0.00492343" stroke-miterlimit="1.5" stroke-linecap="round" stroke-linejoin="round"/>
<path fill-rule="evenodd" clip-rule="evenodd" d="M92.7119 22.8066C93.7363 24.0545 94.6865 25.3874 95.5604 26.7924C94.6841 25.3903 93.7325 24.0581 92.7119 22.8066Z" fill="#E00010" stroke="black" stroke-width="0.00492343" stroke-miterlimit="1.5" stroke-linecap="round" stroke-linejoin="round"/>
<path fill-rule="evenodd" clip-rule="evenodd" d="M62.7658 11.5713C56.6531 12.9836 51.1399 16.4136 46.7334 21.2594C51.1399 16.4136 56.6531 12.9836 62.7658 11.5713Z" fill="#E00010" stroke="black" stroke-width="0.00492343" stroke-miterlimit="1.5" stroke-linecap="round" stroke-linejoin="round"/>
<path fill-rule="evenodd" clip-rule="evenodd" d="M78.8683 12.626C79.3853 12.8184 79.8971 13.0254 80.4013 13.2461L81.8996 13.9524C80.4194 13.2041 78.8839 12.5811 77.3027 12.0947L78.8683 12.626Z" fill="#E00010" stroke="black" stroke-width="0.00492343" stroke-miterlimit="1.5" stroke-linecap="round" stroke-linejoin="round"/>
<path fill-rule="evenodd" clip-rule="evenodd" d="M64.3055 11.2605L65.8691 11.0361C65.0617 11.1323 64.2628 11.2626 63.4736 11.4284L64.3055 11.2605Z" fill="#E00010" stroke="black" stroke-width="0.00492343" stroke-miterlimit="1.5" stroke-linecap="round" stroke-linejoin="round"/>
<path fill-rule="evenodd" clip-rule="evenodd" d="M67.4555 10.9004L65.8706 11.0365L67.4555 10.9004Z" fill="#E00010" stroke="black" stroke-width="0.00492343" stroke-miterlimit="1.5" stroke-linecap="round" stroke-linejoin="round"/>
<path fill-rule="evenodd" clip-rule="evenodd" d="M97.0483 29.4082L97.2787 29.8373L98.0738 31.4879C97.7462 30.7832 97.4059 30.0887 97.0483 29.4082Z" fill="#E00010" stroke="black" stroke-width="0.00492343" stroke-miterlimit="1.5" stroke-linecap="round" stroke-linejoin="round"/>
<path fill-rule="evenodd" clip-rule="evenodd" d="M145.266 34.4714C141.526 21.2852 133.233 10.598 122.625 5.08594C130.87 12.2319 137.084 22.5193 140.035 34.4714H145.266ZM145.238 66.1599H140.011C137.05 78.0707 130.848 88.322 122.625 95.4486C133.207 89.95 141.485 79.3016 145.238 66.1599Z" fill="#B3000D"/>
<path d="M122.625 5.08594L122.624 5.08818L122.624 5.0878L122.625 5.08594ZM145.266 34.4714V34.4624L145.268 34.4708L145.266 34.4714ZM140.035 34.4714L140.025 34.4739H140.035V34.4714ZM145.238 66.1599L145.23 66.1574H145.238V66.1599ZM140.011 66.1599V66.1497L140.009 66.1593L140.011 66.1599ZM122.625 95.4486L122.627 95.4505L122.627 95.4508L122.625 95.4486ZM122.624 5.08812C133.232 10.5998 141.523 21.2864 145.264 34.4721L145.268 34.4708C141.528 21.284 133.235 10.5962 122.627 5.08375L122.624 5.08812ZM140.037 34.4708C137.086 22.5183 130.872 12.2304 122.627 5.08408L122.624 5.0878C130.868 12.2334 137.082 22.5203 140.032 34.472L140.037 34.4708ZM140.035 34.4739H145.266V34.469H140.035V34.4739ZM145.238 66.1574H140.011V66.1623H145.238V66.1574ZM122.627 95.4504C130.85 88.3235 137.053 78.0718 140.013 66.1605L140.009 66.1593C137.048 78.0697 130.846 88.3204 122.624 95.4467L122.627 95.4504ZM145.236 66.1592C141.483 79.3003 133.206 89.9482 122.624 95.4464L122.627 95.4508C133.209 89.9518 141.487 79.3028 145.241 66.1605L145.236 66.1592Z" fill="black"/>
<path fill-rule="evenodd" clip-rule="evenodd" d="M134.761 34.4725C129.903 17.3459 117.369 4.43315 102.061 1.5918C112.563 8.64163 120.556 20.4042 124.03 34.4725H134.761ZM134.734 66.1609H124.006C120.52 80.1868 112.539 91.9119 102.061 98.9457C117.34 96.1097 129.857 83.2399 134.734 66.1609Z" fill="#D2000F"/>
<path d="M102.061 1.5918L102.06 1.59443L102.059 1.59384L102.061 1.5918ZM134.761 34.4725V34.4635L134.763 34.4718L134.761 34.4725ZM124.03 34.4725L124.02 34.475H124.03V34.4725ZM134.734 66.1609L134.725 66.1585H134.734V66.1609ZM124.006 66.1609V66.1507L124.003 66.1603L124.006 66.1609ZM102.061 98.9457L102.062 98.948L102.061 98.9482L102.061 98.9457ZM102.06 1.59422C117.367 4.43536 129.901 17.3472 134.759 34.4732L134.763 34.4718C129.906 17.3445 117.37 4.43093 102.061 1.58938L102.06 1.59422ZM124.032 34.4719C120.558 20.4031 112.565 8.63996 102.062 1.58975L102.059 1.59384C112.561 8.64329 120.554 20.4053 124.027 34.4731L124.032 34.4719ZM124.03 34.475H134.761V34.47H124.03V34.475ZM134.734 66.1585H124.006V66.1634H134.734V66.1585ZM102.062 98.9478C112.541 91.9136 120.522 80.1879 124.008 66.1615L124.003 66.1603C120.518 80.1857 112.538 91.9103 102.059 98.9437L102.062 98.9478ZM134.731 66.1602C129.854 83.2385 117.339 96.1075 102.06 98.9433L102.061 98.9482C117.342 96.1119 129.859 83.2412 134.736 66.1616L134.731 66.1602Z" fill="black"/>
<path fill-rule="evenodd" clip-rule="evenodd" d="M69.059 89.6804C67.9829 89.6804 66.9189 89.6186 65.8692 89.4984C58.5212 88.6549 51.8742 84.9284 46.7329 79.2752C54.2322 91.5548 66.3717 99.5337 80.0594 99.5337C98.1715 99.5337 113.573 85.5626 119.114 66.1594H99.2593C98.8441 67.2802 98.3859 68.3733 97.8875 69.4359L97.2797 70.6978L96.4209 72.297L96.0999 72.836C95.059 74.6208 93.8935 76.2929 92.6219 77.8402C91.6349 79.042 90.583 80.1689 89.4736 81.2127L88.799 81.8459L87.5051 82.9453L86.166 83.971C83.8873 85.6237 81.4298 86.9569 78.8356 87.9183C75.7476 89.0635 72.4631 89.6804 69.059 89.6804ZM99.2932 34.4709C98.6472 32.712 97.8962 31.0202 97.0493 29.4069L96.4209 28.2367L95.5601 26.7915C94.6864 25.3864 93.736 24.0533 92.7116 22.8058C89.6617 19.0527 85.9914 16.0238 81.8995 13.9526L80.401 13.2468C79.2399 12.7383 78.048 12.3058 76.8275 11.9642C74.3362 11.2344 71.7346 10.8534 69.059 10.8534C68.5211 10.8534 67.986 10.8688 67.4544 10.8994L65.8692 11.0353C65.0618 11.1283 64.2626 11.2557 63.4739 11.4278L62.7654 11.5707C57.1621 12.8651 52.0623 15.8556 47.8574 20.0771L46.7329 21.2585C54.2322 8.97893 66.3717 1 80.0594 1C98.2016 1 113.624 15.0176 119.142 34.4709H99.2932Z" fill="#E00010"/>
<path d="M65.8692 89.4984L65.8689 89.5008L65.8692 89.4984ZM46.7329 79.2752L46.7311 79.2769L46.7308 79.2765L46.7329 79.2752ZM119.114 66.1594L119.105 66.1569H119.114V66.1594ZM99.2593 66.1594V66.1523L99.257 66.1585L99.2593 66.1594ZM97.8875 69.4359L97.8897 69.437L97.8897 69.437L97.8875 69.4359ZM97.2797 70.6978L97.2819 70.699L97.282 70.6989L97.2797 70.6978ZM96.4209 72.297L96.423 72.2983L96.4231 72.2982L96.4209 72.297ZM96.0999 72.836L96.0978 72.8348L96.0978 72.8348L96.0999 72.836ZM92.6219 77.8402L92.62 77.8387L92.6219 77.8402ZM89.4736 81.2127L89.4753 81.2145L89.4736 81.2127ZM88.799 81.8459L88.8006 81.8478L88.8007 81.8477L88.799 81.8459ZM87.5051 82.9453L87.5066 82.9472L87.5067 82.9471L87.5051 82.9453ZM86.166 83.971L86.1675 83.973L86.1675 83.9729L86.166 83.971ZM78.8356 87.9183L78.8348 87.9159L78.8356 87.9183ZM99.2932 34.4709L99.2865 34.4734H99.2932V34.4709ZM97.0493 29.4069L97.0515 29.4058L97.0515 29.4058L97.0493 29.4069ZM96.4209 28.2367L96.4231 28.2355L96.423 28.2354L96.4209 28.2367ZM95.5601 26.7915L95.5622 26.7903L95.5622 26.7902L95.5601 26.7915ZM92.7116 22.8058L92.7096 22.8074L92.7097 22.8074L92.7116 22.8058ZM81.8995 13.9526L81.9007 13.9504L81.9006 13.9504L81.8995 13.9526ZM80.401 13.2468L80.4021 13.2445L80.402 13.2445L80.401 13.2468ZM76.8275 11.9642L76.8268 11.9665L76.8269 11.9665L76.8275 11.9642ZM67.4544 10.8994L67.4542 10.8969L67.4542 10.8969L67.4544 10.8994ZM65.8692 11.0353L65.869 11.0329L65.8689 11.0329L65.8692 11.0353ZM63.4739 11.4278L63.4744 11.4302L63.4744 11.4302L63.4739 11.4278ZM62.7654 11.5707L62.765 11.5683L62.7649 11.5683L62.7654 11.5707ZM47.8574 20.0771L47.8557 20.0754L47.8556 20.0754L47.8574 20.0771ZM46.7329 21.2585L46.7351 21.2598L46.7347 21.2602L46.7329 21.2585ZM119.142 34.4709V34.4619L119.144 34.4703L119.142 34.4709ZM65.8689 89.5008C66.9187 89.6211 67.9828 89.6828 69.059 89.6828V89.6779C67.983 89.6779 66.9191 89.6161 65.8695 89.4959L65.8689 89.5008ZM46.7311 79.2769C51.8727 84.9304 58.5203 88.6573 65.8689 89.5008L65.8695 89.4959C58.5222 88.6526 51.8757 84.9264 46.7347 79.2735L46.7311 79.2769ZM80.0594 99.5313C66.3727 99.5313 54.2339 91.5529 46.735 79.2739L46.7308 79.2765C54.2304 91.5567 66.3706 99.5362 80.0594 99.5362V99.5313ZM119.112 66.1587C113.571 85.5611 98.1702 99.5313 80.0594 99.5313V99.5362C98.1729 99.5362 113.575 85.564 119.116 66.16L119.112 66.1587ZM119.114 66.1569H99.2593V66.1618H119.114V66.1569ZM97.8897 69.437C98.3882 68.3743 98.8463 67.2811 99.2616 66.1602L99.257 66.1585C98.8418 67.2792 98.3837 68.3724 97.8853 69.4349L97.8897 69.437ZM97.282 70.6989L97.8897 69.437L97.8853 69.4349L97.2775 70.6968L97.282 70.6989ZM96.4231 72.2982L97.2819 70.699L97.2776 70.6967L96.4187 72.2959L96.4231 72.2982ZM96.1021 72.8373L96.423 72.2983L96.4188 72.2958L96.0978 72.8348L96.1021 72.8373ZM92.6238 77.8418C93.8955 76.2944 95.0611 74.6221 96.1021 72.8373L96.0978 72.8348C95.057 74.6194 93.8916 76.2915 92.62 77.8387L92.6238 77.8418ZM89.4753 81.2145C90.5847 80.1706 91.6367 79.0436 92.6238 77.8418L92.62 77.8387C91.633 79.0404 90.5812 80.1672 89.4719 81.2109L89.4753 81.2145ZM88.8007 81.8477L89.4753 81.2145L89.4719 81.2109L88.7973 81.8441L88.8007 81.8477ZM87.5067 82.9471L88.8006 81.8478L88.7974 81.8441L87.5035 82.9434L87.5067 82.9471ZM86.1675 83.9729L87.5066 82.9472L87.5036 82.9433L86.1645 83.969L86.1675 83.9729ZM78.8365 87.9206C81.4309 86.9591 83.8886 85.6258 86.1675 83.973L86.1646 83.969C83.886 85.6216 81.4287 86.9547 78.8348 87.9159L78.8365 87.9206ZM69.059 89.6828C72.4634 89.6828 75.7481 89.0659 78.8365 87.9206L78.8348 87.9159C75.747 89.0611 72.4628 89.6779 69.059 89.6779V89.6828ZM99.2955 34.4701C98.6495 32.711 97.8984 31.0191 97.0515 29.4058L97.0471 29.4081C97.8939 31.0212 98.6449 32.7129 99.2909 34.4718L99.2955 34.4701ZM97.0515 29.4058L96.4231 28.2355L96.4187 28.2379L97.0471 29.4081L97.0515 29.4058ZM96.423 28.2354L95.5622 26.7903L95.558 26.7928L96.4188 28.238L96.423 28.2354ZM95.5622 26.7902C94.6884 25.3851 93.7379 24.0518 92.7135 22.8043L92.7097 22.8074C93.734 24.0548 94.6844 25.3878 95.558 26.7928L95.5622 26.7902ZM92.7135 22.8043C89.6634 19.0509 85.9929 16.0217 81.9007 13.9504L81.8984 13.9548C85.99 16.0258 89.66 19.0545 92.7096 22.8074L92.7135 22.8043ZM81.9006 13.9504L80.4021 13.2445L80.4 13.249L81.8985 13.9548L81.9006 13.9504ZM80.402 13.2445C79.2408 12.736 78.0488 12.3034 76.8282 11.9618L76.8269 11.9665C78.0472 12.3081 79.239 12.7406 80.4 13.249L80.402 13.2445ZM76.8282 11.9618C74.3367 11.2319 71.7349 10.8509 69.059 10.8509V10.8558C71.7344 10.8558 74.3357 11.2368 76.8268 11.9665L76.8282 11.9618ZM69.059 10.8509C68.5211 10.8509 67.9859 10.8664 67.4542 10.8969L67.4545 10.9018C67.9861 10.8713 68.5212 10.8558 69.059 10.8558V10.8509ZM67.4542 10.8969L65.869 11.0329L65.8694 11.0378L67.4546 10.9018L67.4542 10.8969ZM65.8689 11.0329C65.0614 11.1258 64.2622 11.2533 63.4733 11.4254L63.4744 11.4302C64.263 11.2581 65.0621 11.1307 65.8695 11.0378L65.8689 11.0329ZM63.4734 11.4254L62.765 11.5683L62.7659 11.5731L63.4744 11.4302L63.4734 11.4254ZM62.7649 11.5683C57.1611 12.8628 52.0609 15.8536 47.8557 20.0754L47.8592 20.0789C52.0638 15.8576 57.1632 12.8674 62.766 11.5731L62.7649 11.5683ZM47.8556 20.0754L46.7311 21.2568L46.7347 21.2602L47.8592 20.0788L47.8556 20.0754ZM46.735 21.2598C54.2339 8.9808 66.3727 1.00246 80.0594 1.00246V0.997538C66.3706 0.997538 54.2304 8.97706 46.7308 21.2572L46.735 21.2598ZM80.0594 1.00246C98.2002 1.00246 113.622 15.019 119.139 34.4716L119.144 34.4703C113.626 15.0161 98.2029 0.997538 80.0594 0.997538V1.00246ZM99.2932 34.4734H119.142V34.4685H99.2932V34.4734Z" fill="black"/>
</svg>
